<svg width="120" height="120" viewBox="0 0 120 120" fill="none" xmlns="http://www.w3.org/2000/svg">
<path d="M45 88.75C44.5 88.75 44.05 88.65 43.55 88.45C42.15 87.9 41.25 86.5 41.25 85V55C41.25 52.95 42.95 51.25 45 51.25C47.05 51.25 48.75 52.95 48.75 55V75.95L52.35 72.35C53.8 70.9 56.2 70.9 57.65 72.35C59.1 73.8 59.1 76.2 57.65 77.65L47.65 87.65C46.95 88.35 45.95 88.75 45 88.75Z" fill="#292D32"/>
<path d="M45 88.7502C44.05 88.7502 43.1 88.4002 42.35 87.6502L32.35 77.6502C30.9 76.2002 30.9 73.8002 32.35 72.3502C33.8 70.9002 36.2 70.9002 37.65 72.3502L47.6499 82.3502C49.0999 83.8002 49.0999 86.2002 47.6499 87.6502C46.8999 88.4002 45.95 88.7502 45 88.7502Z" fill="#292D32"/>
<path d="M75 113.75H45C17.85 113.75 6.25 102.15 6.25 75V45C6.25 17.85 17.85 6.25 45 6.25H70C72.05 6.25 73.75 7.95 73.75 10C73.75 12.05 72.05 13.75 70 13.75H45C21.95 13.75 13.75 21.95 13.75 45V75C13.75 98.05 21.95 106.25 45 106.25H75C98.05 106.25 106.25 98.05 106.25 75V50C106.25 47.95 107.95 46.25 110 46.25C112.05 46.25 113.75 47.95 113.75 50V75C113.75 102.15 102.15 113.75 75 113.75Z" fill="#292D32"/>
<path d="M110 53.7499H90C72.9 53.7499 66.25 47.0999 66.25 29.9999V9.99994C66.25 8.49994 67.15 7.09994 68.55 6.54994C69.95 5.94994 71.55 6.29994 72.65 7.34994L112.65 47.3499C113.7 48.3999 114.05 50.0499 113.45 51.4499C112.85 52.8499 111.5 53.7499 110 53.7499ZM73.75 19.0499V29.9999C73.75 42.8999 77.1 46.2499 90 46.2499H100.95L73.75 19.0499Z" fill="#292D32"/>
</svg>
