<svg width="179" height="179" viewBox="0 0 179 179" fill="none" xmlns="http://www.w3.org/2000/svg">
<path d="M89.5755 169.602C84.8767 169.602 80.2525 168.035 76.598 164.903L64.8138 154.834C63.6205 153.79 60.6371 152.746 59.0709 152.746H46.0188C34.9805 152.746 26.0305 143.796 26.0305 132.757V120.004C26.0305 118.437 24.9863 115.454 24.0167 114.335L13.8734 102.402C7.75754 95.1674 7.75754 83.8307 13.8734 76.5216L24.0167 64.5882C24.9863 63.4695 26.0305 60.4862 26.0305 58.9199V46.2407C26.0305 35.2024 34.9805 26.2524 46.0188 26.2524H58.9217C60.488 26.2524 63.3967 25.1337 64.6646 24.0895L76.4488 14.0207C83.758 7.83033 95.1692 7.83033 102.478 14.0207L114.263 24.0895C115.456 25.1337 118.514 26.1778 120.08 26.1778H132.759C143.798 26.1778 152.748 35.1278 152.748 46.1662V58.8453C152.748 60.4116 153.866 63.3203 154.91 64.5882L164.979 76.3724C171.244 83.7562 171.17 95.1674 164.979 102.402L154.91 114.186C153.866 115.454 152.822 118.363 152.822 119.929V132.608C152.822 143.647 143.872 152.597 132.834 152.597H120.155C118.588 152.597 115.68 153.715 114.337 154.759L102.553 164.828C98.8984 168.035 94.1996 169.602 89.5755 169.602ZM46.0188 37.4399C41.1709 37.4399 37.218 41.3928 37.218 46.2407V58.9199C37.218 63.1712 35.2788 68.5412 32.5192 71.8228L22.3759 83.7562C19.84 86.8141 19.84 92.1841 22.3759 95.1674L32.4446 107.026C35.1296 110.084 37.1434 115.678 37.1434 119.929V132.683C37.1434 137.531 41.0963 141.484 45.9442 141.484H58.9217C63.0984 141.484 68.6175 143.497 71.8992 146.257L83.758 156.4C86.8159 159.011 92.1113 159.011 95.2438 156.4L107.028 146.332C110.384 143.497 115.829 141.558 120.005 141.558H132.685C137.533 141.558 141.485 137.605 141.485 132.757V120.078C141.485 115.902 143.499 110.457 146.259 107.101L156.402 95.242C159.013 92.1841 159.013 86.8141 156.402 83.7562L146.333 71.972C143.499 68.6157 141.56 63.1712 141.56 58.9945V46.2407C141.56 41.3928 137.607 37.4399 132.759 37.4399H120.08C115.829 37.4399 110.31 35.4262 107.028 32.6666L95.1692 22.5232C92.1113 19.9128 86.8159 19.9128 83.6834 22.5232L71.9738 32.6666C68.6175 35.4262 63.173 37.4399 58.9217 37.4399H46.0188Z" fill="#5DB075"/>
<path d="M115.333 70L80.5 104.833L64.6666 89" stroke="#5DB075" stroke-width="8" stroke-linecap="round" stroke-linejoin="round"/>
</svg>
