<svg width="134" height="134" viewBox="0 0 134 134" fill="none" xmlns="http://www.w3.org/2000/svg">
<path d="M82.6891 95.4747C82.6333 95.4747 82.5775 95.4747 82.5217 95.4747H45.2808C34.2258 94.693 29.3125 86.2622 29.3125 78.7247C29.3125 72.4155 32.7742 65.4924 40.2001 62.9241C38.5251 54.5491 40.5909 46.7324 46.1184 40.9257C52.7626 33.9466 63.4267 31.2108 72.5833 34.0024C80.735 36.5149 86.5976 43.0474 88.8867 52.1483C95.8659 54.1024 101.393 59.574 103.683 66.9998C106.251 75.4865 103.906 84.1965 97.5408 89.724C93.5208 93.409 88.2166 95.4747 82.6891 95.4747ZM45.4484 70.3497C39.7534 70.8522 37.6875 75.1513 37.6875 78.7247C37.6875 82.3538 39.7534 86.7088 45.56 87.0997H82.5217C86.1508 87.0997 89.3333 85.8715 91.9016 83.4707C96.5916 79.3949 96.8709 73.5323 95.6425 69.4006C94.4142 65.2689 90.8967 60.5788 84.8108 59.853C82.9683 59.6296 81.5167 58.2338 81.1817 56.3913C79.9534 48.9655 75.9891 43.885 70.0708 42.0425C63.9849 40.1441 56.5591 42.0981 52.1483 46.7323C47.7933 51.2548 46.8441 57.6755 49.3566 64.7663C50.1383 66.9438 49.0217 69.3448 46.8442 70.1264C46.3976 70.2939 45.6717 70.4055 45.4484 70.3497Z" fill="#292D32"/>
<path d="M50.2501 127.021C26.4092 127.021 6.97925 107.591 6.97925 83.75C6.97925 81.4608 8.87758 79.5625 11.1667 79.5625C13.4559 79.5625 15.3542 81.4608 15.3542 83.75C15.3542 100.277 26.8558 114.123 42.3217 117.753L40.8142 115.24C39.6417 113.23 40.256 110.662 42.266 109.489C44.2201 108.317 46.8443 108.931 48.0168 110.941L53.8792 120.712C54.6609 121.996 54.6609 123.615 53.9351 124.899C53.1534 126.183 51.7576 127.021 50.2501 127.021Z" fill="#292D32"/>
<path d="M122.833 54.4373C120.544 54.4373 118.646 52.539 118.646 50.2498C118.646 33.7232 107.144 19.8764 91.6781 16.2472L93.1855 18.7598C94.358 20.7698 93.7438 23.3383 91.7338 24.5108C89.7796 25.6833 87.1555 25.069 85.983 23.059L80.1206 13.2882C79.3389 12.004 79.3388 10.3849 80.0647 9.1007C80.7905 7.7607 82.1863 6.979 83.6938 6.979C107.535 6.979 126.965 26.409 126.965 50.2498C127.02 52.539 125.122 54.4373 122.833 54.4373Z" fill="#292D32"/>
</svg>
